<svg xmlns="http://www.w3.org/2000/svg" viewBox="0 0 64 64" role="img" aria-label="Plan B">
  <rect width="64" height="64" rx="14" fill="#082952"/>
  <circle cx="32" cy="32" r="22" fill="#f7931a"/>
  <path fill="#fff" d="M38.8 20.1c5.2 1.3 7.2 4.5 6.2 8.2-.7 2.7-2.4 4.2-5 4.8 3.9 1.8 5.3 4.6 4.4 8.1-1.5 5.8-7.1 7.4-15.4 5.4l-8.6-2.1 1.5-5.8 3.4.9 4-15.8-3.4-.9 1.4-5.6 3.7.9 1.1-4.2 4.2 1-1 4.1 2.6.7 1-4.2 4.2 1-1.1 4.4 1 .3Zm-8.5 20.7c4.5 1.1 8.3 1.6 9.1-1.7.8-3.1-2.8-4.2-7.5-5.4l-1.6 7.1Zm2.8-11.9c3.8.9 7.1 1.3 7.8-1.5.7-2.7-2.4-3.7-6.4-4.7l-1.4 6.2Z"/>
</svg>
